<?xml version="1.0" encoding="utf-8"?>
<!-- Generator: Adobe Illustrator 16.0.0, SVG Export Plug-In . SVG Version: 6.00 Build 0)  -->
<!DOCTYPE svg PUBLIC "-//W3C//DTD SVG 1.1//EN" "http://www.w3.org/Graphics/SVG/1.1/DTD/svg11.dtd">
<svg version="1.1" id="Layer_1" xmlns="http://www.w3.org/2000/svg" xmlns:xlink="http://www.w3.org/1999/xlink" x="0px" y="0px"
	 width="140.998px" height="31.5px" viewBox="0 0 140.998 31.5" enable-background="new 0 0 140.998 31.5" xml:space="preserve">
<g>
	<g>
		<path fill="#323232" d="M29.778,30.017h-4.109c-0.461,0-0.84-0.116-1.136-0.347c-0.296-0.229-0.511-0.516-0.642-0.858
			l-2.134-5.829H9.921l-2.134,5.829c-0.106,0.304-0.313,0.579-0.623,0.829c-0.309,0.251-0.688,0.376-1.136,0.376H1.899L13.122,1.446
			h5.434L29.778,30.017z M11.285,19.228h9.108l-3.478-9.503c-0.158-0.421-0.333-0.918-0.524-1.492
			c-0.191-0.573-0.378-1.195-0.563-1.867c-0.185,0.672-0.366,1.298-0.544,1.877c-0.178,0.58-0.353,1.087-0.523,1.521L11.285,19.228z
			"/>
		<path fill="#323232" d="M47.105,11.76c0,0.342-0.063,0.675-0.188,0.998c-0.125,0.323-0.274,0.596-0.445,0.819l-9.642,12.685h9.998
			v3.755H31.161v-2.035c0-0.224,0.052-0.49,0.158-0.801c0.105-0.31,0.27-0.603,0.494-0.88l9.721-12.822h-9.8V9.744h15.372V11.76z"/>
		<path fill="#323232" d="M59.651,9.429c1.515,0,2.888,0.243,4.12,0.73c1.231,0.487,2.282,1.179,3.151,2.075
			c0.87,0.896,1.542,1.988,2.016,3.279c0.474,1.291,0.71,2.733,0.71,4.327c0,1.608-0.237,3.056-0.71,4.346
			c-0.475,1.292-1.146,2.392-2.016,3.3c-0.869,0.909-1.92,1.608-3.151,2.095c-1.232,0.487-2.605,0.73-4.12,0.73
			s-2.891-0.243-4.129-0.73c-1.238-0.486-2.296-1.186-3.171-2.095c-0.876-0.908-1.555-2.008-2.036-3.3
			c-0.481-1.29-0.721-2.737-0.721-4.346c0-1.594,0.24-3.036,0.721-4.327c0.48-1.291,1.159-2.384,2.036-3.279
			c0.875-0.896,1.933-1.588,3.171-2.075C56.76,9.672,58.137,9.429,59.651,9.429z M59.651,26.559c1.687,0,2.934-0.565,3.744-1.699
			c0.81-1.133,1.216-2.792,1.216-4.979c0-2.186-0.406-3.853-1.216-4.998c-0.81-1.146-2.058-1.719-3.744-1.719
			c-1.712,0-2.977,0.576-3.793,1.729s-1.225,2.815-1.225,4.988c0,2.173,0.408,3.83,1.225,4.97
			C56.674,25.988,57.939,26.559,59.651,26.559z"/>
		<path fill="#323232" d="M73.462,30.017V9.744h2.983c0.632,0,1.047,0.297,1.245,0.89l0.316,1.501
			c0.356-0.396,0.728-0.757,1.117-1.087c0.388-0.329,0.803-0.612,1.245-0.85c0.441-0.237,0.915-0.425,1.422-0.563
			c0.507-0.138,1.064-0.207,1.67-0.207c1.277,0,2.329,0.345,3.151,1.037c0.823,0.691,1.439,1.61,1.848,2.756
			c0.316-0.671,0.711-1.248,1.186-1.729c0.474-0.481,0.995-0.873,1.561-1.176c0.566-0.303,1.169-0.526,1.808-0.672
			c0.639-0.145,1.281-0.217,1.926-0.217c1.12,0,2.116,0.171,2.984,0.513c0.868,0.343,1.601,0.843,2.192,1.502
			c0.592,0.658,1.044,1.462,1.354,2.411s0.465,2.035,0.465,3.259v12.903h-4.879V17.114c0-1.291-0.284-2.262-0.851-2.914
			c-0.566-0.652-1.396-0.979-2.489-0.979c-0.5,0-0.965,0.086-1.393,0.257c-0.428,0.171-0.803,0.417-1.126,0.741
			c-0.323,0.323-0.577,0.728-0.76,1.215c-0.185,0.488-0.277,1.047-0.277,1.679v12.903h-4.9V17.114c0-1.355-0.273-2.343-0.819-2.964
			c-0.547-0.618-1.354-0.928-2.421-0.928c-0.698,0-1.354,0.175-1.966,0.523c-0.613,0.35-1.183,0.827-1.709,1.433v14.839H73.462z"/>
		<path fill="#323232" d="M112.663,3.837c0,0.422-0.086,0.817-0.257,1.186c-0.172,0.369-0.399,0.691-0.682,0.968
			c-0.284,0.277-0.616,0.497-0.999,0.662c-0.381,0.165-0.789,0.247-1.225,0.247c-0.421,0-0.819-0.083-1.195-0.247
			c-0.375-0.165-0.701-0.385-0.978-0.662c-0.276-0.276-0.497-0.599-0.662-0.968c-0.163-0.369-0.247-0.764-0.247-1.186
			c0-0.435,0.084-0.843,0.247-1.226c0.165-0.381,0.386-0.71,0.662-0.988c0.276-0.276,0.603-0.497,0.978-0.662
			c0.376-0.165,0.774-0.247,1.195-0.247c0.436,0,0.844,0.083,1.225,0.247c0.383,0.165,0.715,0.385,0.999,0.662
			c0.282,0.277,0.51,0.606,0.682,0.988C112.577,2.994,112.663,3.402,112.663,3.837z M111.93,9.744v20.272h-4.879V9.744H111.93z"/>
		<path fill="#323232" d="M131.191,30.017h-2.194c-0.461,0-0.823-0.07-1.086-0.209c-0.264-0.138-0.461-0.417-0.593-0.839
			l-0.435-1.441c-0.514,0.461-1.018,0.865-1.512,1.215c-0.493,0.349-1.005,0.642-1.531,0.879s-1.087,0.415-1.679,0.534
			c-0.594,0.117-1.252,0.177-1.978,0.177c-0.854,0-1.646-0.116-2.369-0.348c-0.725-0.229-1.348-0.576-1.868-1.04
			c-0.521-0.462-0.926-1.037-1.216-1.725c-0.289-0.687-0.434-1.486-0.434-2.398c0-0.767,0.2-1.523,0.603-2.27
			c0.401-0.747,1.07-1.421,2.005-2.022c0.936-0.602,2.18-1.1,3.735-1.497c1.554-0.396,3.483-0.595,5.789-0.595v-1.193
			c0-1.366-0.287-2.379-0.86-3.037s-1.405-0.985-2.499-0.985c-0.791,0-1.449,0.093-1.977,0.277
			c-0.526,0.185-0.984,0.392-1.373,0.622c-0.388,0.231-0.747,0.438-1.076,0.622c-0.329,0.186-0.692,0.277-1.087,0.277
			c-0.33,0-0.612-0.085-0.849-0.257c-0.237-0.171-0.43-0.382-0.573-0.632l-0.89-1.561c2.332-2.134,5.145-3.201,8.437-3.201
			c1.187,0,2.243,0.195,3.171,0.583c0.929,0.388,1.716,0.928,2.361,1.62c0.645,0.691,1.136,1.518,1.472,2.479
			c0.336,0.962,0.505,2.016,0.505,3.162V30.017z M121.707,26.975c0.5,0,0.962-0.046,1.383-0.138c0.422-0.091,0.82-0.227,1.195-0.408
			c0.376-0.181,0.738-0.404,1.087-0.671c0.35-0.266,0.702-0.58,1.058-0.943v-3.394c-1.424,0-2.612,0.09-3.567,0.27
			c-0.955,0.179-1.722,0.407-2.301,0.686c-0.579,0.279-0.992,0.604-1.236,0.977c-0.243,0.37-0.364,0.774-0.364,1.213
			c0,0.863,0.254,1.479,0.76,1.852C120.228,26.787,120.89,26.975,121.707,26.975z"/>
	</g>
	<circle fill="#00CEA1" cx="137.15" cy="27.126" r="3.589"/>
</g>
</svg>
